<?xml version="1.0" encoding="UTF-8" standalone="no"?>
<!DOCTYPE svg PUBLIC "-//W3C//DTD SVG 1.1//EN"
 "http://www.w3.org/Graphics/SVG/1.1/DTD/svg11.dtd">
<!-- Generated by graphviz version 2.36.0 (20140111.2315)
 -->
<!-- Title: controllers_diagram Pages: 1 -->
<svg width="3091pt" height="282pt"
 viewBox="0.00 0.00 3091.00 282.00" xmlns="http://www.w3.org/2000/svg" xmlns:xlink="http://www.w3.org/1999/xlink">
<g id="graph0" class="graph" transform="scale(1 1) rotate(0) translate(4 278)">
<title>controllers_diagram</title>
<polygon fill="white" stroke="none" points="-4,4 -4,-278 3087,-278 3087,4 -4,4"/>
<!-- Api::BaseController -->
<g id="node1" class="node"><title>Api::BaseController</title>
<path fill="none" stroke="black" d="M11,-90C11,-90 145,-90 145,-90 151,-90 157,-96 157,-102 157,-102 157,-172 157,-172 157,-178 151,-184 145,-184 145,-184 11,-184 11,-184 5,-184 -1,-178 -1,-172 -1,-172 -1,-102 -1,-102 -1,-96 5,-90 11,-90"/>
<text text-anchor="middle" x="78" y="-168.8" font-family="Times,serif" font-size="14.00">Api::BaseController</text>
<polyline fill="none" stroke="black" points="-1,-161 157,-161 "/>
<polyline fill="none" stroke="black" points="-1,-137 157,-137 "/>
<polyline fill="none" stroke="black" points="-1,-113 157,-113 "/>
<text text-anchor="start" x="7" y="-97.8" font-family="Times,serif" font-size="14.00">_layout</text>
</g>
<!-- Api::ProfilesController -->
<g id="node2" class="node"><title>Api::ProfilesController</title>
<path fill="none" stroke="black" d="M186.5,-90.5C186.5,-90.5 339.5,-90.5 339.5,-90.5 345.5,-90.5 351.5,-96.5 351.5,-102.5 351.5,-102.5 351.5,-171.5 351.5,-171.5 351.5,-177.5 345.5,-183.5 339.5,-183.5 339.5,-183.5 186.5,-183.5 186.5,-183.5 180.5,-183.5 174.5,-177.5 174.5,-171.5 174.5,-171.5 174.5,-102.5 174.5,-102.5 174.5,-96.5 180.5,-90.5 186.5,-90.5"/>
<text text-anchor="middle" x="263" y="-168.3" font-family="Times,serif" font-size="14.00">Api::ProfilesController</text>
<polyline fill="none" stroke="black" points="174.5,-160.5 351.5,-160.5 "/>
<text text-anchor="start" x="182.5" y="-145.3" font-family="Times,serif" font-size="14.00">me</text>
<polyline fill="none" stroke="black" points="174.5,-137.5 351.5,-137.5 "/>
<polyline fill="none" stroke="black" points="174.5,-113.5 351.5,-113.5 "/>
<text text-anchor="start" x="182.5" y="-98.3" font-family="Times,serif" font-size="14.00">_layout</text>
</g>
<!-- Api::SessionsController -->
<g id="node3" class="node"><title>Api::SessionsController</title>
<path fill="none" stroke="black" d="M381.5,-83C381.5,-83 542.5,-83 542.5,-83 548.5,-83 554.5,-89 554.5,-95 554.5,-95 554.5,-179 554.5,-179 554.5,-185 548.5,-191 542.5,-191 542.5,-191 381.5,-191 381.5,-191 375.5,-191 369.5,-185 369.5,-179 369.5,-179 369.5,-95 369.5,-95 369.5,-89 375.5,-83 381.5,-83"/>
<text text-anchor="middle" x="462" y="-175.8" font-family="Times,serif" font-size="14.00">Api::SessionsController</text>
<polyline fill="none" stroke="black" points="369.5,-168 554.5,-168 "/>
<text text-anchor="start" x="377.5" y="-152.8" font-family="Times,serif" font-size="14.00">create</text>
<text text-anchor="start" x="377.5" y="-137.8" font-family="Times,serif" font-size="14.00">destroy</text>
<polyline fill="none" stroke="black" points="369.5,-130 554.5,-130 "/>
<polyline fill="none" stroke="black" points="369.5,-106 554.5,-106 "/>
<text text-anchor="start" x="377.5" y="-90.8" font-family="Times,serif" font-size="14.00">_layout</text>
</g>
<!-- AppsController -->
<g id="node4" class="node"><title>AppsController</title>
<path fill="none" stroke="black" d="M585,-0.5C585,-0.5 687,-0.5 687,-0.5 693,-0.5 699,-6.5 699,-12.5 699,-12.5 699,-261.5 699,-261.5 699,-267.5 693,-273.5 687,-273.5 687,-273.5 585,-273.5 585,-273.5 579,-273.5 573,-267.5 573,-261.5 573,-261.5 573,-12.5 573,-12.5 573,-6.5 579,-0.5 585,-0.5"/>
<text text-anchor="middle" x="636" y="-258.3" font-family="Times,serif" font-size="14.00">AppsController</text>
<polyline fill="none" stroke="black" points="573,-250.5 699,-250.5 "/>
<text text-anchor="start" x="581" y="-235.3" font-family="Times,serif" font-size="14.00">add_pg_db</text>
<text text-anchor="start" x="581" y="-220.3" font-family="Times,serif" font-size="14.00">create</text>
<text text-anchor="start" x="581" y="-205.3" font-family="Times,serif" font-size="14.00">destroy</text>
<text text-anchor="start" x="581" y="-190.3" font-family="Times,serif" font-size="14.00">edit</text>
<text text-anchor="start" x="581" y="-175.3" font-family="Times,serif" font-size="14.00">index</text>
<text text-anchor="start" x="581" y="-160.3" font-family="Times,serif" font-size="14.00">new</text>
<text text-anchor="start" x="581" y="-145.3" font-family="Times,serif" font-size="14.00">restart</text>
<text text-anchor="start" x="581" y="-130.3" font-family="Times,serif" font-size="14.00">show</text>
<text text-anchor="start" x="581" y="-115.3" font-family="Times,serif" font-size="14.00">start</text>
<text text-anchor="start" x="581" y="-100.3" font-family="Times,serif" font-size="14.00">stop</text>
<text text-anchor="start" x="581" y="-85.3" font-family="Times,serif" font-size="14.00">update</text>
<polyline fill="none" stroke="black" points="573,-77.5 699,-77.5 "/>
<polyline fill="none" stroke="black" points="573,-53.5 699,-53.5 "/>
<text text-anchor="start" x="581" y="-38.3" font-family="Times,serif" font-size="14.00">_layout</text>
<text text-anchor="start" x="581" y="-23.3" font-family="Times,serif" font-size="14.00">app_params</text>
<text text-anchor="start" x="581" y="-8.3" font-family="Times,serif" font-size="14.00">set_app</text>
</g>
<!-- ApplicationController -->
<g id="node5" class="node"><title>ApplicationController</title>
<path fill="none" stroke="black" d="M729,-23C729,-23 989,-23 989,-23 995,-23 1001,-29 1001,-35 1001,-35 1001,-239 1001,-239 1001,-245 995,-251 989,-251 989,-251 729,-251 729,-251 723,-251 717,-245 717,-239 717,-239 717,-35 717,-35 717,-29 723,-23 729,-23"/>
<text text-anchor="middle" x="859" y="-235.8" font-family="Times,serif" font-size="14.00">ApplicationController</text>
<polyline fill="none" stroke="black" points="717,-228 1001,-228 "/>
<polyline fill="none" stroke="black" points="717,-204 1001,-204 "/>
<text text-anchor="start" x="725" y="-188.8" font-family="Times,serif" font-size="14.00">configure_permitted_parameters</text>
<polyline fill="none" stroke="black" points="717,-181 1001,-181 "/>
<text text-anchor="start" x="725" y="-165.8" font-family="Times,serif" font-size="14.00">_layout</text>
<text text-anchor="start" x="725" y="-150.8" font-family="Times,serif" font-size="14.00">authorization_header</text>
<text text-anchor="start" x="725" y="-135.8" font-family="Times,serif" font-size="14.00">current_session_token</text>
<text text-anchor="start" x="725" y="-120.8" font-family="Times,serif" font-size="14.00">invalid_authentication</text>
<text text-anchor="start" x="725" y="-105.8" font-family="Times,serif" font-size="14.00">permission_denied</text>
<text text-anchor="start" x="725" y="-90.8" font-family="Times,serif" font-size="14.00">token_auth?</text>
<text text-anchor="start" x="725" y="-75.8" font-family="Times,serif" font-size="14.00">token_auth_possible_and_necessary?</text>
<text text-anchor="start" x="725" y="-60.8" font-family="Times,serif" font-size="14.00">token_authenticate_user!</text>
<text text-anchor="start" x="725" y="-45.8" font-family="Times,serif" font-size="14.00">unauthenticated</text>
<text text-anchor="start" x="725" y="-30.8" font-family="Times,serif" font-size="14.00">valid_token_auth?</text>
</g>
<!-- EnvsController -->
<g id="node6" class="node"><title>EnvsController</title>
<path fill="none" stroke="black" d="M1031.5,-30.5C1031.5,-30.5 1132.5,-30.5 1132.5,-30.5 1138.5,-30.5 1144.5,-36.5 1144.5,-42.5 1144.5,-42.5 1144.5,-231.5 1144.5,-231.5 1144.5,-237.5 1138.5,-243.5 1132.5,-243.5 1132.5,-243.5 1031.5,-243.5 1031.5,-243.5 1025.5,-243.5 1019.5,-237.5 1019.5,-231.5 1019.5,-231.5 1019.5,-42.5 1019.5,-42.5 1019.5,-36.5 1025.5,-30.5 1031.5,-30.5"/>
<text text-anchor="middle" x="1082" y="-228.3" font-family="Times,serif" font-size="14.00">EnvsController</text>
<polyline fill="none" stroke="black" points="1019.5,-220.5 1144.5,-220.5 "/>
<text text-anchor="start" x="1027.5" y="-205.3" font-family="Times,serif" font-size="14.00">create</text>
<text text-anchor="start" x="1027.5" y="-190.3" font-family="Times,serif" font-size="14.00">destroy</text>
<text text-anchor="start" x="1027.5" y="-175.3" font-family="Times,serif" font-size="14.00">edit</text>
<text text-anchor="start" x="1027.5" y="-160.3" font-family="Times,serif" font-size="14.00">index</text>
<text text-anchor="start" x="1027.5" y="-145.3" font-family="Times,serif" font-size="14.00">new</text>
<text text-anchor="start" x="1027.5" y="-130.3" font-family="Times,serif" font-size="14.00">show</text>
<text text-anchor="start" x="1027.5" y="-115.3" font-family="Times,serif" font-size="14.00">update</text>
<polyline fill="none" stroke="black" points="1019.5,-107.5 1144.5,-107.5 "/>
<polyline fill="none" stroke="black" points="1019.5,-83.5 1144.5,-83.5 "/>
<text text-anchor="start" x="1027.5" y="-68.3" font-family="Times,serif" font-size="14.00">_layout</text>
<text text-anchor="start" x="1027.5" y="-53.3" font-family="Times,serif" font-size="14.00">env_params</text>
<text text-anchor="start" x="1027.5" y="-38.3" font-family="Times,serif" font-size="14.00">set_env</text>
</g>
<!-- Profiles::SshKeysController -->
<g id="node7" class="node"><title>Profiles::SshKeysController</title>
<path fill="none" stroke="black" d="M1174,-38C1174,-38 1362,-38 1362,-38 1368,-38 1374,-44 1374,-50 1374,-50 1374,-224 1374,-224 1374,-230 1368,-236 1362,-236 1362,-236 1174,-236 1174,-236 1168,-236 1162,-230 1162,-224 1162,-224 1162,-50 1162,-50 1162,-44 1168,-38 1174,-38"/>
<text text-anchor="middle" x="1268" y="-220.8" font-family="Times,serif" font-size="14.00">Profiles::SshKeysController</text>
<polyline fill="none" stroke="black" points="1162,-213 1374,-213 "/>
<text text-anchor="start" x="1170" y="-197.8" font-family="Times,serif" font-size="14.00">create</text>
<text text-anchor="start" x="1170" y="-182.8" font-family="Times,serif" font-size="14.00">destroy</text>
<text text-anchor="start" x="1170" y="-167.8" font-family="Times,serif" font-size="14.00">index</text>
<text text-anchor="start" x="1170" y="-152.8" font-family="Times,serif" font-size="14.00">new</text>
<text text-anchor="start" x="1170" y="-137.8" font-family="Times,serif" font-size="14.00">show</text>
<polyline fill="none" stroke="black" points="1162,-130 1374,-130 "/>
<polyline fill="none" stroke="black" points="1162,-106 1374,-106 "/>
<text text-anchor="start" x="1170" y="-90.8" font-family="Times,serif" font-size="14.00">_layout</text>
<text text-anchor="start" x="1170" y="-75.8" font-family="Times,serif" font-size="14.00">set_ssh_key</text>
<text text-anchor="start" x="1170" y="-60.8" font-family="Times,serif" font-size="14.00">set_ssh_keys</text>
<text text-anchor="start" x="1170" y="-45.8" font-family="Times,serif" font-size="14.00">ssh_key_params</text>
</g>
<!-- Admin::DashboardController -->
<g id="node8" class="node"><title>Admin::DashboardController</title>
<path fill="none" stroke="black" d="M1403.5,-90.5C1403.5,-90.5 1602.5,-90.5 1602.5,-90.5 1608.5,-90.5 1614.5,-96.5 1614.5,-102.5 1614.5,-102.5 1614.5,-171.5 1614.5,-171.5 1614.5,-177.5 1608.5,-183.5 1602.5,-183.5 1602.5,-183.5 1403.5,-183.5 1403.5,-183.5 1397.5,-183.5 1391.5,-177.5 1391.5,-171.5 1391.5,-171.5 1391.5,-102.5 1391.5,-102.5 1391.5,-96.5 1397.5,-90.5 1403.5,-90.5"/>
<text text-anchor="middle" x="1503" y="-168.3" font-family="Times,serif" font-size="14.00">Admin::DashboardController</text>
<polyline fill="none" stroke="black" points="1391.5,-160.5 1614.5,-160.5 "/>
<text text-anchor="start" x="1399.5" y="-145.3" font-family="Times,serif" font-size="14.00">index</text>
<polyline fill="none" stroke="black" points="1391.5,-137.5 1614.5,-137.5 "/>
<polyline fill="none" stroke="black" points="1391.5,-113.5 1614.5,-113.5 "/>
<text text-anchor="start" x="1399.5" y="-98.3" font-family="Times,serif" font-size="14.00">_layout</text>
</g>
<!-- Admin::BackgroundJobsController -->
<g id="node9" class="node"><title>Admin::BackgroundJobsController</title>
<path fill="none" stroke="black" d="M1644.5,-90.5C1644.5,-90.5 1883.5,-90.5 1883.5,-90.5 1889.5,-90.5 1895.5,-96.5 1895.5,-102.5 1895.5,-102.5 1895.5,-171.5 1895.5,-171.5 1895.5,-177.5 1889.5,-183.5 1883.5,-183.5 1883.5,-183.5 1644.5,-183.5 1644.5,-183.5 1638.5,-183.5 1632.5,-177.5 1632.5,-171.5 1632.5,-171.5 1632.5,-102.5 1632.5,-102.5 1632.5,-96.5 1638.5,-90.5 1644.5,-90.5"/>
<text text-anchor="middle" x="1764" y="-168.3" font-family="Times,serif" font-size="14.00">Admin::BackgroundJobsController</text>
<polyline fill="none" stroke="black" points="1632.5,-160.5 1895.5,-160.5 "/>
<text text-anchor="start" x="1640.5" y="-145.3" font-family="Times,serif" font-size="14.00">index</text>
<polyline fill="none" stroke="black" points="1632.5,-137.5 1895.5,-137.5 "/>
<polyline fill="none" stroke="black" points="1632.5,-113.5 1895.5,-113.5 "/>
<text text-anchor="start" x="1640.5" y="-98.3" font-family="Times,serif" font-size="14.00">_layout</text>
</g>
<!-- Admin::BaseController -->
<g id="node10" class="node"><title>Admin::BaseController</title>
<path fill="none" stroke="black" d="M1926,-90C1926,-90 2082,-90 2082,-90 2088,-90 2094,-96 2094,-102 2094,-102 2094,-172 2094,-172 2094,-178 2088,-184 2082,-184 2082,-184 1926,-184 1926,-184 1920,-184 1914,-178 1914,-172 1914,-172 1914,-102 1914,-102 1914,-96 1920,-90 1926,-90"/>
<text text-anchor="middle" x="2004" y="-168.8" font-family="Times,serif" font-size="14.00">Admin::BaseController</text>
<polyline fill="none" stroke="black" points="1914,-161 2094,-161 "/>
<polyline fill="none" stroke="black" points="1914,-137 2094,-137 "/>
<polyline fill="none" stroke="black" points="1914,-113 2094,-113 "/>
<text text-anchor="start" x="1922" y="-97.8" font-family="Times,serif" font-size="14.00">_layout</text>
</g>
<!-- Admin::UsersController -->
<g id="node11" class="node"><title>Admin::UsersController</title>
<path fill="none" stroke="black" d="M2124.5,-38C2124.5,-38 2287.5,-38 2287.5,-38 2293.5,-38 2299.5,-44 2299.5,-50 2299.5,-50 2299.5,-224 2299.5,-224 2299.5,-230 2293.5,-236 2287.5,-236 2287.5,-236 2124.5,-236 2124.5,-236 2118.5,-236 2112.5,-230 2112.5,-224 2112.5,-224 2112.5,-50 2112.5,-50 2112.5,-44 2118.5,-38 2124.5,-38"/>
<text text-anchor="middle" x="2206" y="-220.8" font-family="Times,serif" font-size="14.00">Admin::UsersController</text>
<polyline fill="none" stroke="black" points="2112.5,-213 2299.5,-213 "/>
<text text-anchor="start" x="2120.5" y="-197.8" font-family="Times,serif" font-size="14.00">destroy</text>
<text text-anchor="start" x="2120.5" y="-182.8" font-family="Times,serif" font-size="14.00">edit</text>
<text text-anchor="start" x="2120.5" y="-167.8" font-family="Times,serif" font-size="14.00">index</text>
<text text-anchor="start" x="2120.5" y="-152.8" font-family="Times,serif" font-size="14.00">show</text>
<text text-anchor="start" x="2120.5" y="-137.8" font-family="Times,serif" font-size="14.00">update</text>
<polyline fill="none" stroke="black" points="2112.5,-130 2299.5,-130 "/>
<polyline fill="none" stroke="black" points="2112.5,-106 2299.5,-106 "/>
<text text-anchor="start" x="2120.5" y="-90.8" font-family="Times,serif" font-size="14.00">_layout</text>
<text text-anchor="start" x="2120.5" y="-75.8" font-family="Times,serif" font-size="14.00">serialized_users</text>
<text text-anchor="start" x="2120.5" y="-60.8" font-family="Times,serif" font-size="14.00">set_user</text>
<text text-anchor="start" x="2120.5" y="-45.8" font-family="Times,serif" font-size="14.00">user_params</text>
</g>
<!-- Users::OmniauthCallbacksController -->
<g id="node12" class="node"><title>Users::OmniauthCallbacksController</title>
<path fill="none" stroke="black" d="M2329.5,-90.5C2329.5,-90.5 2586.5,-90.5 2586.5,-90.5 2592.5,-90.5 2598.5,-96.5 2598.5,-102.5 2598.5,-102.5 2598.5,-171.5 2598.5,-171.5 2598.5,-177.5 2592.5,-183.5 2586.5,-183.5 2586.5,-183.5 2329.5,-183.5 2329.5,-183.5 2323.5,-183.5 2317.5,-177.5 2317.5,-171.5 2317.5,-171.5 2317.5,-102.5 2317.5,-102.5 2317.5,-96.5 2323.5,-90.5 2329.5,-90.5"/>
<text text-anchor="middle" x="2458" y="-168.3" font-family="Times,serif" font-size="14.00">Users::OmniauthCallbacksController</text>
<polyline fill="none" stroke="black" points="2317.5,-160.5 2598.5,-160.5 "/>
<text text-anchor="start" x="2325.5" y="-145.3" font-family="Times,serif" font-size="14.00">github</text>
<polyline fill="none" stroke="black" points="2317.5,-137.5 2598.5,-137.5 "/>
<polyline fill="none" stroke="black" points="2317.5,-113.5 2598.5,-113.5 "/>
<text text-anchor="start" x="2325.5" y="-98.3" font-family="Times,serif" font-size="14.00">_layout</text>
</g>
<!-- Users::SessionsController -->
<g id="node13" class="node"><title>Users::SessionsController</title>
<path fill="none" stroke="black" d="M2629,-90.5C2629,-90.5 2807,-90.5 2807,-90.5 2813,-90.5 2819,-96.5 2819,-102.5 2819,-102.5 2819,-171.5 2819,-171.5 2819,-177.5 2813,-183.5 2807,-183.5 2807,-183.5 2629,-183.5 2629,-183.5 2623,-183.5 2617,-177.5 2617,-171.5 2617,-171.5 2617,-102.5 2617,-102.5 2617,-96.5 2623,-90.5 2629,-90.5"/>
<text text-anchor="middle" x="2718" y="-168.3" font-family="Times,serif" font-size="14.00">Users::SessionsController</text>
<polyline fill="none" stroke="black" points="2617,-160.5 2819,-160.5 "/>
<text text-anchor="start" x="2625" y="-145.3" font-family="Times,serif" font-size="14.00">create</text>
<polyline fill="none" stroke="black" points="2617,-137.5 2819,-137.5 "/>
<polyline fill="none" stroke="black" points="2617,-113.5 2819,-113.5 "/>
<text text-anchor="start" x="2625" y="-98.3" font-family="Times,serif" font-size="14.00">_layout</text>
</g>
<!-- Users::RegistrationsController -->
<g id="node14" class="node"><title>Users::RegistrationsController</title>
<path fill="none" stroke="black" d="M2849,-75.5C2849,-75.5 3071,-75.5 3071,-75.5 3077,-75.5 3083,-81.5 3083,-87.5 3083,-87.5 3083,-186.5 3083,-186.5 3083,-192.5 3077,-198.5 3071,-198.5 3071,-198.5 2849,-198.5 2849,-198.5 2843,-198.5 2837,-192.5 2837,-186.5 2837,-186.5 2837,-87.5 2837,-87.5 2837,-81.5 2843,-75.5 2849,-75.5"/>
<text text-anchor="middle" x="2960" y="-183.3" font-family="Times,serif" font-size="14.00">Users::RegistrationsController</text>
<polyline fill="none" stroke="black" points="2837,-175.5 3083,-175.5 "/>
<polyline fill="none" stroke="black" points="2837,-151.5 3083,-151.5 "/>
<text text-anchor="start" x="2845" y="-136.3" font-family="Times,serif" font-size="14.00">_layout_from_proc</text>
<text text-anchor="start" x="2845" y="-121.3" font-family="Times,serif" font-size="14.00">after_inactive_sign_up_path_for</text>
<text text-anchor="start" x="2845" y="-106.3" font-family="Times,serif" font-size="14.00">after_sign_up_path_for</text>
<polyline fill="none" stroke="black" points="2837,-98.5 3083,-98.5 "/>
<text text-anchor="start" x="2845" y="-83.3" font-family="Times,serif" font-size="14.00">_layout</text>
</g>
</g>
</svg>
