<?xml version="1.0" encoding="UTF-8" standalone="no"?>
<!DOCTYPE svg PUBLIC "-//W3C//DTD SVG 1.1//EN"
 "http://www.w3.org/Graphics/SVG/1.1/DTD/svg11.dtd">
<!-- Generated by graphviz version 2.36.0 (20140111.2315)
 -->
<!-- Title: models_diagram Pages: 1 -->
<svg width="606pt" height="762pt"
 viewBox="0.00 0.00 606.00 762.00" xmlns="http://www.w3.org/2000/svg" xmlns:xlink="http://www.w3.org/1999/xlink">
<g id="graph0" class="graph" transform="scale(1 1) rotate(0) translate(4 758)">
<title>models_diagram</title>
<polygon fill="white" stroke="none" points="-4,4 -4,-758 602,-758 602,4 -4,4"/>
<!-- Env -->
<g id="node1" class="node"><title>Env</title>
<path fill="none" stroke="black" d="M12,-23C12,-23 158,-23 158,-23 164,-23 170,-29 170,-35 170,-35 170,-117 170,-117 170,-123 164,-129 158,-129 158,-129 12,-129 12,-129 6,-129 0,-123 0,-117 0,-117 0,-35 0,-35 0,-29 6,-23 12,-23"/>
<text text-anchor="middle" x="85" y="-113.8" font-family="Times,serif" font-size="14.00">Env</text>
<polyline fill="none" stroke="black" points="0,-106 170,-106 "/>
<text text-anchor="start" x="8" y="-90.8" font-family="Times,serif" font-size="14.00">id :integer</text>
<text text-anchor="start" x="8" y="-75.8" font-family="Times,serif" font-size="14.00">name :string</text>
<text text-anchor="start" x="8" y="-60.8" font-family="Times,serif" font-size="14.00">value :string</text>
<text text-anchor="start" x="8" y="-45.8" font-family="Times,serif" font-size="14.00">created_at :datetime</text>
<text text-anchor="start" x="8" y="-30.8" font-family="Times,serif" font-size="14.00">updated_at :datetime</text>
</g>
<!-- User -->
<g id="node2" class="node"><title>User</title>
<path fill="none" stroke="black" d="M155,-362.5C155,-362.5 393,-362.5 393,-362.5 399,-362.5 405,-368.5 405,-374.5 405,-374.5 405,-741.5 405,-741.5 405,-747.5 399,-753.5 393,-753.5 393,-753.5 155,-753.5 155,-753.5 149,-753.5 143,-747.5 143,-741.5 143,-741.5 143,-374.5 143,-374.5 143,-368.5 149,-362.5 155,-362.5"/>
<text text-anchor="middle" x="274" y="-738.3" font-family="Times,serif" font-size="14.00">User</text>
<polyline fill="none" stroke="black" points="143,-730.5 405,-730.5 "/>
<text text-anchor="start" x="151" y="-715.3" font-family="Times,serif" font-size="14.00">id :integer</text>
<text text-anchor="start" x="151" y="-700.3" font-family="Times,serif" font-size="14.00">email :string</text>
<text text-anchor="start" x="151" y="-685.3" font-family="Times,serif" font-size="14.00">encrypted_password :string</text>
<text text-anchor="start" x="151" y="-670.3" font-family="Times,serif" font-size="14.00">reset_password_token :string</text>
<text text-anchor="start" x="151" y="-655.3" font-family="Times,serif" font-size="14.00">reset_password_sent_at :datetime</text>
<text text-anchor="start" x="151" y="-640.3" font-family="Times,serif" font-size="14.00">remember_created_at :datetime</text>
<text text-anchor="start" x="151" y="-625.3" font-family="Times,serif" font-size="14.00">sign_in_count :integer</text>
<text text-anchor="start" x="151" y="-610.3" font-family="Times,serif" font-size="14.00">current_sign_in_at :datetime</text>
<text text-anchor="start" x="151" y="-595.3" font-family="Times,serif" font-size="14.00">last_sign_in_at :datetime</text>
<text text-anchor="start" x="151" y="-580.3" font-family="Times,serif" font-size="14.00">current_sign_in_ip :string</text>
<text text-anchor="start" x="151" y="-565.3" font-family="Times,serif" font-size="14.00">last_sign_in_ip :string</text>
<text text-anchor="start" x="151" y="-550.3" font-family="Times,serif" font-size="14.00">confirmation_token :string</text>
<text text-anchor="start" x="151" y="-535.3" font-family="Times,serif" font-size="14.00">confirmed_at :datetime</text>
<text text-anchor="start" x="151" y="-520.3" font-family="Times,serif" font-size="14.00">confirmation_sent_at :datetime</text>
<text text-anchor="start" x="151" y="-505.3" font-family="Times,serif" font-size="14.00">unconfirmed_email :string</text>
<text text-anchor="start" x="151" y="-490.3" font-family="Times,serif" font-size="14.00">failed_attempts :integer</text>
<text text-anchor="start" x="151" y="-475.3" font-family="Times,serif" font-size="14.00">unlock_token :string</text>
<text text-anchor="start" x="151" y="-460.3" font-family="Times,serif" font-size="14.00">locked_at :datetime</text>
<text text-anchor="start" x="151" y="-445.3" font-family="Times,serif" font-size="14.00">username :string</text>
<text text-anchor="start" x="151" y="-430.3" font-family="Times,serif" font-size="14.00">provider :string</text>
<text text-anchor="start" x="151" y="-415.3" font-family="Times,serif" font-size="14.00">uid :string</text>
<text text-anchor="start" x="151" y="-400.3" font-family="Times,serif" font-size="14.00">admin :boolean</text>
<text text-anchor="start" x="151" y="-385.3" font-family="Times,serif" font-size="14.00">created_at :datetime</text>
<text text-anchor="start" x="151" y="-370.3" font-family="Times,serif" font-size="14.00">updated_at :datetime</text>
</g>
<!-- App -->
<g id="node5" class="node"><title>App</title>
<path fill="none" stroke="black" d="M107,-196.5C107,-196.5 253,-196.5 253,-196.5 259,-196.5 265,-202.5 265,-208.5 265,-208.5 265,-305.5 265,-305.5 265,-311.5 259,-317.5 253,-317.5 253,-317.5 107,-317.5 107,-317.5 101,-317.5 95,-311.5 95,-305.5 95,-305.5 95,-208.5 95,-208.5 95,-202.5 101,-196.5 107,-196.5"/>
<text text-anchor="middle" x="180" y="-302.3" font-family="Times,serif" font-size="14.00">App</text>
<polyline fill="none" stroke="black" points="95,-294.5 265,-294.5 "/>
<text text-anchor="start" x="103" y="-279.3" font-family="Times,serif" font-size="14.00">id :integer</text>
<text text-anchor="start" x="103" y="-264.3" font-family="Times,serif" font-size="14.00">name :string</text>
<text text-anchor="start" x="103" y="-249.3" font-family="Times,serif" font-size="14.00">status :string</text>
<text text-anchor="start" x="103" y="-234.3" font-family="Times,serif" font-size="14.00">user_id :integer</text>
<text text-anchor="start" x="103" y="-219.3" font-family="Times,serif" font-size="14.00">created_at :datetime</text>
<text text-anchor="start" x="103" y="-204.3" font-family="Times,serif" font-size="14.00">updated_at :datetime</text>
</g>
<!-- User&#45;&gt;App -->
<g id="edge2" class="edge"><title>User&#45;&gt;App</title>
<path fill="none" stroke="#af8187" d="M210.305,-354.396C207.321,-344.904 204.44,-335.74 201.72,-327.088"/>
<ellipse fill="none" stroke="#af8187" cx="211.545" cy="-358.34" rx="4.00001" ry="4.00001"/>
<polygon fill="#af8187" stroke="#af8187" points="201.72,-327.087 203.013,-316.197 200.22,-322.317 198.72,-317.547 198.72,-317.547 198.72,-317.547 200.22,-322.317 194.428,-318.897 201.72,-327.087 201.72,-327.087"/>
</g>
<!-- SshKey -->
<g id="node6" class="node"><title>SshKey</title>
<path fill="none" stroke="black" d="M295,-189C295,-189 441,-189 441,-189 447,-189 453,-195 453,-201 453,-201 453,-313 453,-313 453,-319 447,-325 441,-325 441,-325 295,-325 295,-325 289,-325 283,-319 283,-313 283,-313 283,-201 283,-201 283,-195 289,-189 295,-189"/>
<text text-anchor="middle" x="368" y="-309.8" font-family="Times,serif" font-size="14.00">SshKey</text>
<polyline fill="none" stroke="black" points="283,-302 453,-302 "/>
<text text-anchor="start" x="291" y="-286.8" font-family="Times,serif" font-size="14.00">id :integer</text>
<text text-anchor="start" x="291" y="-271.8" font-family="Times,serif" font-size="14.00">title :string</text>
<text text-anchor="start" x="291" y="-256.8" font-family="Times,serif" font-size="14.00">fingerprint :string</text>
<text text-anchor="start" x="291" y="-241.8" font-family="Times,serif" font-size="14.00">content :text</text>
<text text-anchor="start" x="291" y="-226.8" font-family="Times,serif" font-size="14.00">user_id :integer</text>
<text text-anchor="start" x="291" y="-211.8" font-family="Times,serif" font-size="14.00">created_at :datetime</text>
<text text-anchor="start" x="291" y="-196.8" font-family="Times,serif" font-size="14.00">updated_at :datetime</text>
</g>
<!-- User&#45;&gt;SshKey -->
<g id="edge1" class="edge"><title>User&#45;&gt;SshKey</title>
<path fill="none" stroke="#46685f" d="M337.726,-354.296C339.828,-347.611 341.878,-341.089 343.857,-334.794"/>
<ellipse fill="none" stroke="#46685f" cx="336.455" cy="-358.34" rx="4.00001" ry="4.00001"/>
<polygon fill="#46685f" stroke="#46685f" points="343.906,-334.639 351.198,-326.449 345.406,-329.869 346.905,-325.099 346.905,-325.099 346.905,-325.099 345.406,-329.869 342.612,-323.75 343.906,-334.639 343.906,-334.639"/>
</g>
<!-- Database -->
<g id="node3" class="node"><title>Database</title>
<path fill="none" stroke="black" d="M200.5,-0.5C200.5,-0.5 351.5,-0.5 351.5,-0.5 357.5,-0.5 363.5,-6.5 363.5,-12.5 363.5,-12.5 363.5,-139.5 363.5,-139.5 363.5,-145.5 357.5,-151.5 351.5,-151.5 351.5,-151.5 200.5,-151.5 200.5,-151.5 194.5,-151.5 188.5,-145.5 188.5,-139.5 188.5,-139.5 188.5,-12.5 188.5,-12.5 188.5,-6.5 194.5,-0.5 200.5,-0.5"/>
<text text-anchor="middle" x="276" y="-136.3" font-family="Times,serif" font-size="14.00">Database</text>
<polyline fill="none" stroke="black" points="188.5,-128.5 363.5,-128.5 "/>
<text text-anchor="start" x="196.5" y="-113.3" font-family="Times,serif" font-size="14.00">id :integer</text>
<text text-anchor="start" x="196.5" y="-98.3" font-family="Times,serif" font-size="14.00">ip :string</text>
<text text-anchor="start" x="196.5" y="-83.3" font-family="Times,serif" font-size="14.00">container_id :string</text>
<text text-anchor="start" x="196.5" y="-68.3" font-family="Times,serif" font-size="14.00">connection_url :string</text>
<text text-anchor="start" x="196.5" y="-53.3" font-family="Times,serif" font-size="14.00">type :string</text>
<text text-anchor="start" x="196.5" y="-38.3" font-family="Times,serif" font-size="14.00">app_id :integer</text>
<text text-anchor="start" x="196.5" y="-23.3" font-family="Times,serif" font-size="14.00">created_at :datetime</text>
<text text-anchor="start" x="196.5" y="-8.3" font-family="Times,serif" font-size="14.00">updated_at :datetime</text>
</g>
<!-- PgDatabase -->
<g id="node4" class="node"><title>PgDatabase</title>
<path fill="none" stroke="black" d="M435.5,-482.5C435.5,-482.5 586.5,-482.5 586.5,-482.5 592.5,-482.5 598.5,-488.5 598.5,-494.5 598.5,-494.5 598.5,-621.5 598.5,-621.5 598.5,-627.5 592.5,-633.5 586.5,-633.5 586.5,-633.5 435.5,-633.5 435.5,-633.5 429.5,-633.5 423.5,-627.5 423.5,-621.5 423.5,-621.5 423.5,-494.5 423.5,-494.5 423.5,-488.5 429.5,-482.5 435.5,-482.5"/>
<text text-anchor="middle" x="511" y="-618.3" font-family="Times,serif" font-size="14.00">PgDatabase</text>
<polyline fill="none" stroke="black" points="423.5,-610.5 598.5,-610.5 "/>
<text text-anchor="start" x="431.5" y="-595.3" font-family="Times,serif" font-size="14.00">id :integer</text>
<text text-anchor="start" x="431.5" y="-580.3" font-family="Times,serif" font-size="14.00">ip :string</text>
<text text-anchor="start" x="431.5" y="-565.3" font-family="Times,serif" font-size="14.00">container_id :string</text>
<text text-anchor="start" x="431.5" y="-550.3" font-family="Times,serif" font-size="14.00">connection_url :string</text>
<text text-anchor="start" x="431.5" y="-535.3" font-family="Times,serif" font-size="14.00">type :string</text>
<text text-anchor="start" x="431.5" y="-520.3" font-family="Times,serif" font-size="14.00">app_id :integer</text>
<text text-anchor="start" x="431.5" y="-505.3" font-family="Times,serif" font-size="14.00">created_at :datetime</text>
<text text-anchor="start" x="431.5" y="-490.3" font-family="Times,serif" font-size="14.00">updated_at :datetime</text>
</g>
<!-- App&#45;&gt;Env -->
<g id="edge4" class="edge"><title>App&#45;&gt;Env</title>
<path fill="none" stroke="#509b24" d="M144.53,-189.166C135.646,-172.428 126.161,-154.557 117.434,-138.112"/>
<ellipse fill="none" stroke="#509b24" cx="146.491" cy="-192.862" rx="4.00002" ry="4.00002"/>
<polygon fill="#509b24" stroke="#509b24" points="117.359,-137.972 116.646,-127.029 115.015,-133.555 112.671,-129.139 112.671,-129.139 112.671,-129.139 115.015,-133.555 108.697,-131.248 117.359,-137.972 117.359,-137.972"/>
</g>
<!-- App&#45;&gt;Database -->
<g id="edge3" class="edge"><title>App&#45;&gt;Database</title>
<path fill="none" stroke="#ba9deb" d="M215.798,-189.252C221.143,-179.286 226.704,-168.917 232.191,-158.685"/>
<ellipse fill="none" stroke="#ba9deb" cx="213.857" cy="-192.871" rx="4.00002" ry="4.00002"/>
<ellipse fill="#ba9deb" stroke="#ba9deb" cx="234.084" cy="-155.155" rx="4.00002" ry="4.00002"/>
</g>
</g>
</svg>
